<svg xmlns="http://www.w3.org/2000/svg" width="216" height="146" viewBox="0 0 216 146"><path d="M46.284 100.823v33.893h33.893l67.786-67.786-33.893-33.893-67.786 67.786zm29.575 23.464h-8.72V113.86H56.714v-8.72l7.414-7.414 19.146 19.146-7.414 7.415zm40.818-77.4c1.194 0 1.79.6 1.79 1.793 0 .544-.188 1.005-.57 1.386L73.74 94.226c-.38.378-.842.568-1.385.568-1.194 0-1.792-.6-1.792-1.792 0-.544.19-1.005.57-1.386l44.16-44.158c.38-.38.84-.57 1.385-.57zM166.7 33.443L147.556 14.38c-2.063-2.064-4.535-3.097-7.414-3.097-2.933 0-5.376 1.033-7.33 3.096L119.284 27.82l33.893 33.893 13.525-13.524c2.01-2.01 3.014-4.453 3.014-7.332 0-2.824-1.005-5.296-3.016-7.415z"/></svg>